<svg width="1176" height="200" viewBox="0 0 1176 200" fill="none" xmlns="http://www.w3.org/2000/svg">
<path d="M1060 34C1076.57 34 1090 47.4315 1090 64V136C1090 152.569 1076.57 166 1060 166H551C534.431 166 521 152.569 521 136V64C521 47.4315 534.431 34 551 34H1060Z" fill="#249C0F"/>
<path d="M106 136V76.9H85.5V66H139.9V76.9H119.4V136H106ZM143.285 136V66H156.585V94.7H156.985C158.718 91.6333 160.985 89.3 163.785 87.7C166.585 86.0333 169.885 85.2 173.685 85.2C177.685 85.2 181.085 86.1 183.885 87.9C186.685 89.6333 188.818 92.2 190.285 95.6C191.752 99 192.485 103.2 192.485 108.2V136H179.085V109.4C179.085 105.267 178.252 102.1 176.585 99.9C174.985 97.7 172.385 96.6 168.785 96.6C166.452 96.6 164.385 97.1667 162.585 98.3C160.785 99.3667 159.352 100.933 158.285 103C157.285 105 156.785 107.467 156.785 110.4V136H143.285ZM215.212 137.2C211.278 137.2 208.012 136.533 205.412 135.2C202.878 133.867 201.012 132.067 199.812 129.8C198.612 127.533 198.012 125.033 198.012 122.3C198.012 119.233 198.778 116.533 200.312 114.2C201.912 111.867 204.312 110.067 207.512 108.8C210.712 107.467 214.745 106.8 219.612 106.8H232.112C232.112 104.333 231.745 102.3 231.012 100.7C230.345 99.1 229.278 97.9 227.812 97.1C226.412 96.3 224.612 95.9 222.412 95.9C219.812 95.9 217.578 96.5 215.712 97.7C213.912 98.8333 212.778 100.633 212.312 103.1H199.212C199.612 99.4333 200.812 96.2667 202.812 93.6C204.878 90.9333 207.578 88.8667 210.912 87.4C214.312 85.9333 218.145 85.2 222.412 85.2C227.212 85.2 231.345 86 234.812 87.6C238.278 89.1333 240.945 91.4333 242.812 94.5C244.678 97.5 245.612 101.167 245.612 105.5V136H234.412L233.012 128.3H232.612C231.545 129.767 230.378 131.067 229.112 132.2C227.912 133.333 226.578 134.267 225.112 135C223.645 135.733 222.078 136.267 220.412 136.6C218.745 137 217.012 137.2 215.212 137.2ZM219.612 126.8C221.478 126.8 223.078 126.5 224.412 125.9C225.812 125.233 227.012 124.367 228.012 123.3C229.012 122.233 229.778 121 230.312 119.6C230.912 118.133 231.312 116.633 231.512 115.1H221.112C219.045 115.1 217.345 115.367 216.012 115.9C214.745 116.367 213.812 117.067 213.212 118C212.612 118.867 212.312 119.9 212.312 121.1C212.312 122.3 212.612 123.333 213.212 124.2C213.812 125.067 214.678 125.733 215.812 126.2C216.945 126.6 218.212 126.8 219.612 126.8ZM253.713 136V86.4H267.213V136H253.713ZM260.513 80.1C258.047 80.1 256.013 79.4 254.413 78C252.88 76.5333 252.113 74.7 252.113 72.5C252.113 70.3 252.88 68.4667 254.413 67C256.013 65.5333 258.047 64.8 260.513 64.8C262.98 64.8 264.98 65.5333 266.513 67C268.047 68.4667 268.813 70.3 268.813 72.5C268.813 74.6333 268.047 76.4333 266.513 77.9C264.98 79.3667 262.98 80.1 260.513 80.1ZM313.54 136L291.34 66H305.54L324.54 127.6H324.94L343.54 66H357.74L335.64 136H313.54ZM362.823 136V86.4H376.323V136H362.823ZM369.623 80.1C367.156 80.1 365.123 79.4 363.523 78C361.989 76.5333 361.223 74.7 361.223 72.5C361.223 70.3 361.989 68.4667 363.523 67C365.123 65.5333 367.156 64.8 369.623 64.8C372.089 64.8 374.089 65.5333 375.623 67C377.156 68.4667 377.923 70.3 377.923 72.5C377.923 74.6333 377.156 76.4333 375.623 77.9C374.089 79.3667 372.089 80.1 369.623 80.1ZM405.73 137.2C401.33 137.2 397.43 136.467 394.03 135C390.696 133.533 387.996 131.533 385.93 129C383.93 126.4 382.763 123.467 382.43 120.2H395.93C396.196 121.4 396.73 122.533 397.53 123.6C398.33 124.667 399.396 125.533 400.73 126.2C402.13 126.8 403.73 127.1 405.53 127.1C407.396 127.1 408.896 126.867 410.03 126.4C411.163 125.867 411.996 125.2 412.53 124.4C413.13 123.6 413.43 122.733 413.43 121.8C413.43 120.533 412.996 119.567 412.13 118.9C411.33 118.167 410.13 117.533 408.53 117C406.996 116.467 405.163 115.9 403.03 115.3C400.83 114.7 398.596 114.067 396.33 113.4C394.13 112.733 392.096 111.9 390.23 110.9C388.363 109.833 386.863 108.5 385.73 106.9C384.663 105.233 384.13 103.167 384.13 100.7C384.13 97.8333 384.93 95.2333 386.53 92.9C388.13 90.5667 390.43 88.7 393.43 87.3C396.496 85.9 400.13 85.2 404.33 85.2C410.33 85.2 415.096 86.5667 418.63 89.3C422.23 92.0333 424.33 95.8 424.93 100.6H412.23C411.896 98.9333 411.03 97.6333 409.63 96.7C408.296 95.7667 406.53 95.3 404.33 95.3C401.996 95.3 400.196 95.7667 398.93 96.7C397.73 97.5667 397.13 98.6333 397.13 99.9C397.13 100.833 397.53 101.633 398.33 102.3C399.13 102.9 400.296 103.467 401.83 104C403.43 104.467 405.33 105 407.53 105.6C411.063 106.533 414.296 107.533 417.23 108.6C420.163 109.667 422.496 111.133 424.23 113C425.963 114.8 426.83 117.367 426.83 120.7C426.896 123.9 426.063 126.733 424.33 129.2C422.596 131.667 420.163 133.633 417.03 135.1C413.896 136.5 410.13 137.2 405.73 137.2ZM447.981 137.2C444.048 137.2 440.781 136.533 438.181 135.2C435.648 133.867 433.781 132.067 432.581 129.8C431.381 127.533 430.781 125.033 430.781 122.3C430.781 119.233 431.548 116.533 433.081 114.2C434.681 111.867 437.081 110.067 440.281 108.8C443.481 107.467 447.515 106.8 452.381 106.8H464.881C464.881 104.333 464.515 102.3 463.781 100.7C463.115 99.1 462.048 97.9 460.581 97.1C459.181 96.3 457.381 95.9 455.181 95.9C452.581 95.9 450.348 96.5 448.481 97.7C446.681 98.8333 445.548 100.633 445.081 103.1H431.981C432.381 99.4333 433.581 96.2667 435.581 93.6C437.648 90.9333 440.348 88.8667 443.681 87.4C447.081 85.9333 450.915 85.2 455.181 85.2C459.981 85.2 464.115 86 467.581 87.6C471.048 89.1333 473.715 91.4333 475.581 94.5C477.448 97.5 478.381 101.167 478.381 105.5V136H467.181L465.781 128.3H465.381C464.315 129.767 463.148 131.067 461.881 132.2C460.681 133.333 459.348 134.267 457.881 135C456.415 135.733 454.848 136.267 453.181 136.6C451.515 137 449.781 137.2 447.981 137.2ZM452.381 126.8C454.248 126.8 455.848 126.5 457.181 125.9C458.581 125.233 459.781 124.367 460.781 123.3C461.781 122.233 462.548 121 463.081 119.6C463.681 118.133 464.081 116.633 464.281 115.1H453.881C451.815 115.1 450.115 115.367 448.781 115.9C447.515 116.367 446.581 117.067 445.981 118C445.381 118.867 445.081 119.9 445.081 121.1C445.081 122.3 445.381 123.333 445.981 124.2C446.581 125.067 447.448 125.733 448.581 126.2C449.715 126.6 450.981 126.8 452.381 126.8Z" fill="black"/>
<path d="M575.441 137.2C568.441 137.2 562.375 135.7 557.241 132.7C552.175 129.633 548.275 125.4 545.541 120C542.808 114.533 541.441 108.233 541.441 101.1C541.441 93.9667 542.808 87.6667 545.541 82.2C548.341 76.7333 552.275 72.4667 557.341 69.4C562.408 66.3333 568.441 64.8 575.441 64.8C583.975 64.8 590.941 66.9 596.341 71.1C601.741 75.3 605.141 81.2333 606.541 88.9H591.641C590.775 85.1667 588.975 82.2667 586.241 80.2C583.508 78.0667 579.875 77 575.341 77C571.141 77 567.508 78 564.441 80C561.441 81.9333 559.141 84.7 557.541 88.3C556.008 91.9 555.241 96.1667 555.241 101.1C555.241 106.033 556.008 110.3 557.541 113.9C559.141 117.433 561.441 120.167 564.441 122.1C567.508 124.033 571.141 125 575.341 125C579.875 125 583.508 124.033 586.241 122.1C589.041 120.167 590.875 117.433 591.741 113.9H606.541C605.208 121.167 601.808 126.867 596.341 131C590.941 135.133 583.975 137.2 575.441 137.2ZM613.512 136V66H626.812V94.7H627.212C628.945 91.6333 631.212 89.3 634.012 87.7C636.812 86.0333 640.112 85.2 643.912 85.2C647.912 85.2 651.312 86.1 654.112 87.9C656.912 89.6333 659.045 92.2 660.512 95.6C661.978 99 662.712 103.2 662.712 108.2V136H649.312V109.4C649.312 105.267 648.478 102.1 646.812 99.9C645.212 97.7 642.612 96.6 639.012 96.6C636.678 96.6 634.612 97.1667 632.812 98.3C631.012 99.3667 629.578 100.933 628.512 103C627.512 105 627.012 107.467 627.012 110.4V136H613.512ZM693.638 137.2C688.572 137.2 684.072 136.133 680.138 134C676.272 131.867 673.238 128.867 671.038 125C668.838 121.133 667.738 116.7 667.738 111.7C667.738 106.5 668.805 101.933 670.938 98C673.138 94 676.172 90.8667 680.038 88.6C683.972 86.3333 688.505 85.2 693.638 85.2C698.638 85.2 703.005 86.2667 706.738 88.4C710.472 90.5333 713.405 93.4667 715.538 97.2C717.672 100.867 718.738 105.033 718.738 109.7C718.738 110.367 718.705 111.133 718.638 112C718.638 112.8 718.605 113.633 718.538 114.5H677.338V106.2H705.038C704.838 103.067 703.672 100.567 701.538 98.7C699.472 96.8333 696.872 95.9 693.738 95.9C691.405 95.9 689.272 96.4333 687.338 97.5C685.405 98.5 683.872 100.067 682.738 102.2C681.605 104.267 681.038 106.9 681.038 110.1V113C681.038 115.733 681.572 118.1 682.638 120.1C683.705 122.033 685.172 123.533 687.038 124.6C688.972 125.667 691.138 126.2 693.538 126.2C696.005 126.2 698.072 125.667 699.738 124.6C701.405 123.467 702.672 122.033 703.538 120.3H717.238C716.305 123.433 714.738 126.3 712.538 128.9C710.338 131.433 707.638 133.467 704.438 135C701.238 136.467 697.638 137.2 693.638 137.2ZM748.307 137.2C743.04 137.2 738.44 136.1 734.507 133.9C730.64 131.633 727.607 128.567 725.407 124.7C723.274 120.767 722.207 116.267 722.207 111.2C722.207 106.133 723.307 101.667 725.507 97.8C727.707 93.8667 730.774 90.8 734.707 88.6C738.64 86.3333 743.174 85.2 748.307 85.2C754.707 85.2 760.074 86.8667 764.407 90.2C768.807 93.5333 771.607 98.1333 772.807 104H758.507C757.974 101.6 756.74 99.7333 754.807 98.4C752.94 97.0667 750.74 96.4 748.207 96.4C745.874 96.4 743.774 97 741.907 98.2C740.107 99.3333 738.674 101 737.607 103.2C736.54 105.4 736.007 108.067 736.007 111.2C736.007 113.467 736.307 115.5 736.907 117.3C737.507 119.1 738.34 120.633 739.407 121.9C740.474 123.167 741.74 124.133 743.207 124.8C744.74 125.4 746.407 125.7 748.207 125.7C749.94 125.7 751.507 125.433 752.907 124.9C754.307 124.3 755.507 123.467 756.507 122.4C757.507 121.267 758.174 119.933 758.507 118.4H772.807C771.607 124.133 768.807 128.7 764.407 132.1C760.074 135.5 754.707 137.2 748.307 137.2ZM811.973 136L790.273 108.7L809.373 86.4H825.373L800.673 114.3L800.573 103.6L828.673 136H811.973ZM778.773 136V66H792.273V136H778.773ZM832.656 136V66H846.156V136H832.656ZM855.217 136V86.4H868.717V136H855.217ZM862.017 80.1C859.551 80.1 857.517 79.4 855.917 78C854.384 76.5333 853.617 74.7 853.617 72.5C853.617 70.3 854.384 68.4667 855.917 67C857.517 65.5333 859.551 64.8 862.017 64.8C864.484 64.8 866.484 65.5333 868.017 67C869.551 68.4667 870.317 70.3 870.317 72.5C870.317 74.6333 869.551 76.4333 868.017 77.9C866.484 79.3667 864.484 80.1 862.017 80.1ZM898.124 137.2C893.724 137.2 889.824 136.467 886.424 135C883.091 133.533 880.391 131.533 878.324 129C876.324 126.4 875.158 123.467 874.824 120.2H888.324C888.591 121.4 889.124 122.533 889.924 123.6C890.724 124.667 891.791 125.533 893.124 126.2C894.524 126.8 896.124 127.1 897.924 127.1C899.791 127.1 901.291 126.867 902.424 126.4C903.558 125.867 904.391 125.2 904.924 124.4C905.524 123.6 905.824 122.733 905.824 121.8C905.824 120.533 905.391 119.567 904.524 118.9C903.724 118.167 902.524 117.533 900.924 117C899.391 116.467 897.558 115.9 895.424 115.3C893.224 114.7 890.991 114.067 888.724 113.4C886.524 112.733 884.491 111.9 882.624 110.9C880.758 109.833 879.258 108.5 878.124 106.9C877.058 105.233 876.524 103.167 876.524 100.7C876.524 97.8333 877.324 95.2333 878.924 92.9C880.524 90.5667 882.824 88.7 885.824 87.3C888.891 85.9 892.524 85.2 896.724 85.2C902.724 85.2 907.491 86.5667 911.024 89.3C914.624 92.0333 916.724 95.8 917.324 100.6H904.624C904.291 98.9333 903.424 97.6333 902.024 96.7C900.691 95.7667 898.924 95.3 896.724 95.3C894.391 95.3 892.591 95.7667 891.324 96.7C890.124 97.5667 889.524 98.6333 889.524 99.9C889.524 100.833 889.924 101.633 890.724 102.3C891.524 102.9 892.691 103.467 894.224 104C895.824 104.467 897.724 105 899.924 105.6C903.458 106.533 906.691 107.533 909.624 108.6C912.558 109.667 914.891 111.133 916.624 113C918.358 114.8 919.224 117.367 919.224 120.7C919.291 123.9 918.458 126.733 916.724 129.2C914.991 131.667 912.558 133.633 909.424 135.1C906.291 136.5 902.524 137.2 898.124 137.2ZM945.213 136C941.68 136 938.58 135.467 935.913 134.4C933.313 133.267 931.28 131.433 929.813 128.9C928.347 126.3 927.613 122.767 927.613 118.3V97.2H919.113V86.4H927.613L929.113 72.9H941.113V86.4H954.313V97.2H941.113V118.5C941.113 120.9 941.613 122.567 942.613 123.5C943.613 124.367 945.313 124.8 947.713 124.8H954.013V136H945.213Z" fill="white"/>
<path d="M1022 146C997.738 146 978 126.261 978 102C978 77.738 997.738 57.9997 1022 57.9997C1024.28 57.9997 1026.13 59.8472 1026.13 62.1263C1026.13 64.4053 1024.28 66.2528 1022 66.2528C1002.29 66.2528 986.253 82.2888 986.253 102C986.253 121.71 1002.29 137.747 1022 137.747C1041.71 137.747 1057.75 121.71 1057.75 102C1057.75 99.7205 1059.59 97.873 1061.87 97.873C1064.15 97.873 1066 99.7205 1066 102C1066 126.261 1046.26 146 1022 146Z" fill="white"/>
<path d="M1063.76 69.5937C1049.26 83.138 1037.93 99.7891 1030.83 117.96C1029.75 120.707 1027.42 122.779 1024.55 123.486C1024.52 123.495 1024.48 123.505 1024.44 123.514C1020.58 124.478 1016.53 122.86 1014.43 119.48C1008.32 109.637 1001.63 101.903 997.938 97.9538C996.417 96.3279 996.374 94.0855 998.457 92.711C1003.09 89.6505 1008.97 91.0388 1013.3 95.6788C1015.52 98.0641 1018.42 101.262 1020.53 103.747C1029.75 91.0341 1041.78 77.6086 1053.88 67.3679C1056.44 65.2014 1059.87 64.6394 1062.89 65.6567C1064.58 66.2243 1065.05 68.3807 1063.76 69.5937Z" fill="white"/>
</svg>
